<svg width="921.9999999999999" height="299" xmlns="http://www.w3.org/2000/svg" preserveAspectRatio="xMidYMid meet">

 <g>
  <title>background</title>
  <rect fill="#ffffff" id="canvas_background" height="301" width="924" y="-1" x="-1"/>
 </g>
 <g>
  <title>Layer 1</title>
  <path id="svg_2" fill="#22272e" d="m0,149.499998l0,149.500002l461.000007,0l461.000007,0l0,-149.500002l0,-149.500002l-461.000007,0l-461.000007,0l0,149.500002zm293.000004,-103.600002c5.8,4 8.5,16.5 5.6,26.3c-1.7,6 -4.9,10.8 -7.2,10.8c-2.1,0 -1.7,-1.8 1,-5.1c5.6,-6.6 5.5,-21.3 -0.1,-27.9c-1.9,-2.4 -3.3,-3 -6.3,-3c-3.2,0 -4.3,0.6 -6.8,3.7c-6.9,8.7 -8.2,17.3 -8.2,53.000001l0,25.2l12,-6.1c10.5,-5.3 12.9,-7 18.4,-13c3.9,-4.2 6.6,-6.5 7.1,-5.9c1.6,2.7 -10,15.4 -16.7,18.3c-1.7,0.7 -7.2,3.4 -12.2,5.9l-9.1,4.6l-0.7,6.9c-1.8,17.3 -5.8,42.400001 -8.7,54.900001c-1.3,5.8 -2,7.1 -3.8,7.3c-1.8,0.3 -2.2,-0.3 -2.7,-4c-0.4,-2.4 -1.4,-7.3 -2.2,-11c-1.6,-6.9 -1.6,-10.6 0.1,-9.9c1.1,0.5 4.3,12.9 4.5,17.1c0.1,2.4 0.2,2.4 1,0.4c0.5,-1.2 1.1,-4.3 1.5,-7c0.3,-2.7 1.2,-8.1 2,-11.9c1.4,-7.1 4,-24.7 5,-34.300001c0.7,-6.6 -0.9,-6.9 -5.9,-1.1c-3.7,4.4 -6.1,10.3 -7.2,18.1c-0.4,3.3 -1.1,4.8 -2.1,4.8c-1.3,0 -1.4,-1 -0.8,-5.8c1.4,-11.2 6.6,-20.9 13,-23.9c2.3,-1.1 3.5,-2.5 3.9,-4.6c0.3,-1.6 0.6,-13.8 0.6,-27.1c0,-34.500001 1.3,-42.600001 8.3,-52.400001c4.5,-6.2 10.7,-7.4 16.7,-3.3zm393.600006,10.5c-0.8,4.7 -5.3,20.3 -6.5,22.6c-0.5,0.9 -1.2,3 -1.6,4.8c-0.4,2.2 -1.2,3.2 -2.6,3.2c-2.4,0 -2.4,-1.3 0,-6.4c2.2,-4.6 7.1,-20.6 7.1,-22.9c0,-0.9 0.4,-2.8 1,-4.2c1.5,-4 3.3,-2 2.6,2.9zm-47.100001,-2c2.8,1.3 5.7,3.2 6.7,4.2c2.4,2.9 3.8,9 3.8,17.6c0,4.3 0.3,7.8 0.8,7.8c0.4,-0.1 2.4,-2.6 4.6,-5.7c3,-4.3 3.6,-5.7 2.5,-6.4c-1.8,-1.1 -0.2,-2.7 3.1,-3.1c3.6,-0.4 3.7,2.5 0.2,7c-3,3.8 -6.9,9.3 -15.7,22c-2.7,4.1 -6.3,9.3 -8,11.6c-12,17.2 -11.7,16.6 -11,19.7c1.5,6.5 -2.1,32.1 -6.2,45.000001c-3.5,11 -8.2,13.9 -13.4,8.1c-4.1,-4.5 -5.4,-8.1 -5.4,-15.1c0,-5.6 0.6,-7.8 3.7,-14.4c3.9,-8.1 11.5,-20.7 15.7,-25.8c2.2,-2.8 2.2,-3.2 1.2,-9.7c-1.5,-8.6 -2.9,-15.4 -4.6,-21.7c-6.2,-23.1 -6.5,-30.5 -1.4,-37.700001c4.3,-6 14.7,-7.5 23.4,-3.4zm55.000001,0.8c1.5,2.2 2.1,2.3 17.2,2.3c17.8,0 18.6,0.4 12.8,6.3c-4.1,4.2 -13.7,23.2 -15.6,30.7c-0.6,2.8 -1.8,6.1 -2.4,7.5c-1.3,2.6 -4.5,17.1 -6.7,30c-1.4,8.4 -1.7,42.600001 -0.5,51.200001c0.5,3.5 1.3,5.7 2,5.5c0.7,-0.1 1.3,1.3 1.5,3.6c0.3,3.1 0,3.7 -1.5,3.7c-2.6,0 -4,-4.5 -5.4,-17c-1.2,-11.2 -0.7,-39.300001 1,-49.000001c0.5,-3 1.5,-8.7 2.2,-12.5c2.6,-15.4 13.1,-42.400001 20.4,-52.600001l3.2,-4.5l-10.8,0.4c-10.8,0.5 -22.9,-1.2 -22.9,-3.1c0,-1.5 2,-4.7 3,-4.7c0.5,0 1.6,1 2.5,2.2zm-531.200008,11.5c-3.7,8.4 -8.4,27.1 -14.3,56.300001c-3.5,17.3 -4.2,23.1 -4.7,37.000001c-0.5,13.5 -0.3,17.7 1.1,22.9c0.9,3.6 2.2,7.1 2.8,7.9c5.4,6.4 18,1 34.100001,-14.7c9.5,-9.2 14.5,-15.9 17.3,-23.1c2,-5.2 3.3,-7.2 4.3,-6.5c0.4,0.2 1.3,-3.3 2,-7.8c1.7,-10.9 3.4,-17.1 7.2,-25.1c2.3,-4.9 3.5,-6.4 4.2,-5.7c0.8,0.8 0.8,1.9 0,3.9c-0.6,1.5 -2.3,5.4 -3.7,8.7c-3.3,8 -6.8,29.6 -6,36.900001c0.6,5.3 0.5,5.6 -1.5,5.6c-1.9,0 -2.1,-0.6 -2.2,-5.8l0,-5.7l-1.8,4c-3.5,7.8 -9,15.1 -17.3,23.1c-4.7,4.5 -9.8,9 -11.4,9.9c-1.6,1 -4.5,2.8 -6.4,4.1c-1.9,1.2 -5.9,2.7 -8.7,3.4c-4.6,1 -5.7,1 -9,-0.7c-2.9,-1.4 -4.2,-2.9 -5.7,-6.8c-1.8,-4.4 -2,-7.3 -2,-25.5c0.1,-20.3 0.1,-20.7 4.8,-43.500001c7.6,-37.400001 14.9,-61.600001 17.8,-58.700001c0.9,0.9 0.6,2.4 -0.9,5.9zm50.000001,5.8c2,0.8 5.2,1.5 7,1.5c3.1,0 6.7,2.3 5.5,3.5c-0.3,0.3 -3.6,0.1 -7.4,-0.4c-5.7,-0.8 -7,-0.8 -7.7,0.4c-0.4,0.8 -1.5,1.5 -2.3,1.5c-1.4,0 -1.3,-2 0.2,-6.8c0.4,-1.5 0.4,-1.5 4.7,0.3zm155.200002,22c2.7,2.6 3,5 1.4,11c-2,7.7 -8.1,18.6 -14.6,26c-2.5,2.9 -10.7,6.7 -15.8,7.3c-4.1,0.4 -4.4,0.6 -5.4,4.6c-2.2,8.8 -3.2,22.5 -2.1,29.3c2,12.4 7.5,15.5 16.5,9.3c8.9,-6.1 18.8,-19.9 30.4,-42.300001c4.4,-8.4 9,-17.2 10.3,-19.6c2.5,-4.6 4.8,-6.4 4.8,-3.8c0,2 -19.3,38.800001 -23.1,44.200001c-1.5,2.2 -3.7,5.6 -4.8,7.5c-2.1,3.8 -11.9,14.2 -16.8,17.8c-2.2,1.6 -4.5,2.2 -8.1,2.2c-9.3,0 -12.6,-6.2 -12.5,-23.5c0,-12.3 4.5,-36.400001 7.4,-40.100001c0.5,-0.6 1.6,-3 2.4,-5.3c2.6,-7.5 11.4,-19.8 16.9,-23.6c6,-4.2 9.7,-4.5 13.1,-1zm92.900001,15.5c-0.1,4.7 -0.3,17.3 -0.5,28c-0.4,18.9 -0.3,19.7 2,24.3c2.7,5.6 5.9,7.3 10.5,5.7c1.8,-0.6 3.3,-0.7 3.9,-0.1c1.6,1.6 -0.2,3 -4.7,3.6c-13.6,2.1 -17.8,-12.2 -14.5,-49.900001c1.2,-14.4 1.1,-16.8 -0.9,-14.6c-8.2,9.7 -12.7,16.9 -20.8,34.000001c-11.4,23.8 -22.5,40.000001 -27.4,40.000001c-3.1,0 -3.4,-2.2 -1,-10.2c2.1,-7 6.8,-24.5 9,-33.600001c1.2,-5 2.8,-21.8 2.6,-27.7c-0.1,-4.9 1.6,-5.8 2.6,-1.3c0.9,3.7 0.1,17.8 -1.4,25.3c-0.6,2.7 -1.4,6.8 -1.8,9c-0.4,2.2 -2.6,10.4 -4.9,18.2c-2.2,7.8 -4.1,14.8 -4.1,15.5c0,2.7 7.3,-6.5 12.7,-16c5.1,-9.1 12.3,-23.5 12.3,-24.8c0,-0.3 0.8,-1.8 1.9,-3.2c1,-1.5 3.5,-5.9 5.5,-9.7c4.8,-9.1 15.2,-21.7 17.4,-21.3c1.4,0.3 1.7,1.6 1.6,8.8zm119.500002,-0.8c1.6,4.4 0.7,7.9 -5,19.2c-4.9,9.8 -10.4,18 -18.5,27.4l-7.1,8.1l-0.7,16.3c-0.6,16.9 -3.5,38.900001 -5.9,46.800001c-0.8,2.5 -2,7 -2.7,10c-1.8,7.9 -10.1,25 -15.4,31.9c-11,14.2 -23.3,12.8 -26.6,-3.2c-1.9,-9.5 1.6,-30.5 7.6,-44.700001c7.2,-17.1 21,-37.300001 36.100001,-53.100001l4.5,-4.7l-0.7,-11.1c-0.4,-6.1 -1.1,-11.1 -1.5,-11.1c-0.4,0 -1.5,2.1 -2.5,4.7c-6.7,17.9 -18.4,34.300001 -27,37.900001c-4.6,1.9 -6.1,1.8 -8.5,-0.6c-3.6,-3.6 -2.4,-15.3 3.7,-35.500001c5.7,-19 16.3,-34.000001 26.7,-38.000001c4.3,-1.6 4.7,-1.6 7.1,-0.1c2.3,1.5 2.5,2.2 2.5,9.9c0.1,8 0.1,8.1 1.6,5.3c2.3,-4.2 4,-2 2.6,3.6c-1.7,6.9 -2.5,18.2 -1.7,24.5l0.7,5.8l5.4,-6c8.5,-9.3 14.2,-18.4 21.6,-33.700001c1.1,-2.4 1,-7.5 -0.2,-9.9c-0.6,-1.1 -0.8,-2.4 -0.5,-2.9c1,-1.6 3.3,0.1 4.4,3.2zm179.600003,85.000001c0.7,1.8 1.6,5.4 2,8c0.6,4 0.5,4.8 -0.8,4.8c-1.1,0 -1.8,-1.3 -2.3,-3.8c-1.1,-6.4 -1.9,-6.8 -4,-2.3c-1.2,2.4 -2.6,4.1 -3.6,4.1c-1,0 -1.8,-0.5 -1.8,-1.1c0,-1.8 7,-12.9 8.1,-12.9c0.6,0 1.6,1.5 2.4,3.2zm50.300001,22.3c0.6,6.5 -0.6,10.5 -3,10.5c-1.5,0 -1.8,-0.4 -1.3,-1.8c0.4,-0.9 1,-3.7 1.3,-6.1c0.5,-4.1 0.3,-4.4 -1.4,-3.7c-1,0.5 -3.9,1.1 -6.3,1.4c-3.7,0.4 -4.3,0.3 -4,-1.3c0.3,-1.2 1.5,-1.8 3.7,-2c1.8,-0.2 3.6,-0.6 4,-0.9c0.3,-0.4 2,-0.6 3.7,-0.4c2.7,0.3 3,0.7 3.3,4.3zm-81.600001,0.2c3.4,3.2 3.5,4.3 0.6,4.3c-2.5,-0.1 -6.3,-4.4 -5.3,-6c0.9,-1.5 1.6,-1.2 4.7,1.7zm1.1,11.7c0.5,1.5 0.7,2.9 0.6,3c-0.2,0.2 -2.6,0.6 -5.2,0.9c-4.3,0.6 -4.8,0.5 -4.5,-1.1c0.2,-1.2 1.6,-1.9 4.3,-2.2l4,-0.5l-4.2,-1.3c-4.6,-1.4 -5.8,-2.5 -4.9,-4.7c0.8,-2.2 8.7,2.4 9.9,5.9zm29.7,-2.9c1.9,0.7 3.7,2.1 3.8,3c0.3,1.4 -0.1,1.6 -3,1c-4,-0.9 -8.8,-3.2 -8.8,-4.4c0,-1.4 1.4,-2.2 2.9,-1.5c0.9,0.4 3.2,1.2 5.1,1.9zm29.5,9.9c3.6,0.9 5.5,2.4 5.5,4.2c0,1.8 -3,1.7 -5.4,-0.1c-1.1,-0.8 -2.7,-1.5 -3.7,-1.5c-2.3,0 -4.3,-2.6 -3.5,-4.6c0.6,-1.5 0.8,-1.5 2.4,-0.2c0.9,0.9 3,1.9 4.7,2.2zm-26,2.7c0.4,0.6 -0.2,2.1 -1.4,3.3c-1.2,1.2 -2.1,2.5 -2.1,2.9c0,1.3 5.8,0.7 7,-0.8c1.9,-2.3 2.8,-1.8 5,2.6c2.4,4.7 3.9,4.6 5.5,-0.2c1.2,-3.5 3.7,-4.6 4.3,-1.8c0.2,0.9 -0.5,3.2 -1.6,5c-1.4,2.6 -2.6,3.5 -5,3.7c-2.7,0.3 -3.5,-0.2 -4.9,-2.6c-1.5,-2.6 -2.1,-2.9 -5.4,-2.5c-5,0.7 -8.9,-0.3 -8.9,-2.4c0,-1.8 4.6,-8.3 6,-8.3c0.5,0 1.2,0.5 1.5,1.1zm58.500001,10c0,1.9 -0.4,2.1 -3.6,1.6c-2,-0.3 -3.9,-0.8 -4.1,-1.1c-1.2,-1.2 1.1,-2.6 4.3,-2.6c2.8,0 3.4,0.4 3.4,2.1zm-4,5.4c3.4,1.8 4,4.5 1,4.5c-1.3,0 -1.8,0.5 -1.4,1.5c0.9,2.3 -2.2,1.9 -4.7,-0.6c-1.8,-1.8 -1.9,-2.5 -1,-4.5c1.2,-2.8 2.2,-2.9 6.1,-0.9z"/>
  <path id="svg_3" fill="#22272e" d="m621.900009,57.299996c-1.9,1.2 -4,3.6 -4.8,5.2c-2.1,4.4 -1.6,13.6 1.5,25c2.7,10.3 3.5,14.1 5.7,25.9l1.2,6.9l5.1,-6.9c2.7,-3.8 5.8,-8 6.7,-9.4c0.9,-1.4 3.7,-5.4 6.1,-9c2.4,-3.6 4.1,-6.6 3.7,-6.7c-0.3,-0.2 -0.4,-4.2 -0.2,-8.9c0.5,-13.9 -1.9,-19.4 -10.1,-22.9c-5.4,-2.2 -10.9,-1.9 -14.9,0.8z"/>
  <path id="svg_4" fill="#22272e" d="m617.400009,137.699998c-6.9,10.7 -12,21.1 -12.9,26.2c-0.9,5.2 1,11.5 4.6,15.4l2.9,3.2l1.9,-2.2c2,-2.4 4,-8.1 6.4,-18.3c1.8,-7.3 4.3,-31.8 3.4,-32.6c-0.3,-0.3 -3.1,3.4 -6.3,8.3z"/>
  <path id="svg_5" fill="#22272e" d="m356.800005,98.399997c-7,5.3 -16.1,20.4 -19.8,32.8c-1.6,5.4 4,5.8 12.1,0.9c6.4,-3.9 15.4,-18 17.9,-27.9c0.9,-3.6 0.8,-4.8 -0.5,-6.8c-2.1,-3.3 -4.4,-3 -9.7,1z"/>
  <path id="svg_6" fill="#22272e" d="m533.900008,115.199997c-2.6,1.8 -5.8,4.7 -7.2,6.4c-3.8,4.5 -10.3,18.1 -13.1,27.1c-5.4,17.9 -6.8,28.2 -4.3,31.7c1.1,1.4 1.7,1.5 4.2,0.6c8.1,-3.1 18.1,-17.1 26.5,-37.300001c3,-7.2 3.3,-8.8 3.4,-19.5l0.1,-11.7l-2.5,-0.3c-1.6,-0.2 -4.2,0.9 -7.1,3z"/>
  <path id="svg_7" fill="#22272e" d="m536.000008,180.699998c-11.1,13.4 -14,17.5 -20.3,28.8c-9.7,17.5 -16.5,45.000001 -13.7,55.700001c4.5,16.9 17.3,12.3 28.1,-10.2c2.3,-4.7 4.7,-9.6 5.4,-11c0.7,-1.4 1.8,-5 2.5,-8c0.7,-3 1.9,-7.5 2.7,-10c2.2,-7 5.1,-29.1 5.9,-44.300001c0.4,-7.5 0.5,-13.7 0.3,-13.7c-0.2,0 -5.1,5.8 -10.9,12.7z"/>
 </g>
</svg>